<svg width="236" height="430" viewBox="0 0 236 430" fill="none" xmlns="http://www.w3.org/2000/svg">
<g clip-path="url(#clip0_1145_117185)">
<path fill-rule="evenodd" clip-rule="evenodd" d="M39.9999 19.9984L78.9997 19.9984C78.9997 9.25405 87.7298 0.999166 98.5001 1L137.5 1C148.269 1 157 9.25487 157 19.9992L196 19.9992C217.539 19.9992 235 37.8748 235 59.3635L235 390.09C235 411.579 217.539 428.999 196 428.999H39.999C18.4601 428.999 0.999178 411.579 1.00001 390.09L1 59.3626C0.999999 37.874 18.4609 19.9984 39.9999 19.9984ZM215 58.473C215 47.7182 206.314 38.9992 195.6 38.9992L40.4002 39C29.686 39 21 47.719 21 58.4739L21 389.525C21 400.28 29.686 408.999 40.4002 408.999H195.6C206.314 408.999 215 400.28 215 389.525L215 58.473Z" fill="#1E77F1"/>
<path fill-rule="evenodd" clip-rule="evenodd" d="M215 58.4739C215 47.719 206.314 39 195.6 39L40.4002 39.0008C29.686 39.0008 21 47.7198 21 58.4747L21 389.526C21 400.281 29.686 409 40.4002 409H195.6C206.314 409 215 400.281 215 389.526L215 58.4739ZM40 61L40 391H196L196 61L40 61Z" fill="white"/>
<path d="M110.295 267C109.977 267 109.664 266.948 109.35 266.837C108.168 266.407 107.449 265.241 107.617 264.034L112.223 230.253H93.7007C92.6801 230.253 91.7458 229.691 91.2868 228.804C90.8278 227.917 90.925 226.851 91.5406 226.053L123.942 184.056C124.692 183.08 126.026 182.733 127.165 183.216C128.31 183.694 128.974 184.864 128.769 186.061L123.888 214.504H142.302C143.296 214.504 144.208 215.034 144.678 215.884C145.148 216.735 145.099 217.764 144.559 218.578L112.553 265.824C112.04 266.575 111.181 267 110.295 267ZM99.1008 225.003H115.301C116.084 225.003 116.819 225.334 117.332 225.901C117.845 226.462 118.082 227.224 117.98 227.974L114.518 253.372L137.291 219.753H120.701C119.908 219.753 119.157 219.417 118.639 218.824C118.126 218.236 117.904 217.454 118.039 216.698L121.619 195.815L99.1008 225.003Z" fill="white"/>
<path d="M99.1008 225.003H115.301C116.084 225.003 116.819 225.334 117.332 225.901C117.845 226.462 118.082 227.224 117.98 227.974L114.518 253.372L137.291 219.753H120.701C119.908 219.753 119.157 219.417 118.639 218.824C118.126 218.236 117.904 217.454 118.039 216.698L121.619 195.815L99.1008 225.003Z" fill="white"/>
</g>
<defs>
<clipPath id="clip0_1145_117185">
<rect width="430" height="236" fill="white" transform="translate(0 430) rotate(-90)"/>
</clipPath>
</defs>
</svg>
